<?xml version="1.0" encoding="utf-8"?>
<!-- Generator: Adobe Illustrator 25.1.0, SVG Export Plug-In . SVG Version: 6.00 Build 0)  -->
<svg version="1.1" id="Layer_1" xmlns="http://www.w3.org/2000/svg" xmlns:xlink="http://www.w3.org/1999/xlink" x="0px" y="0px"
	 viewBox="0 0 446.06 115.6" style="enable-background:new 0 0 446.06 115.6;" xml:space="preserve">
<style type="text/css">
	.st0{fill:#FFFFFF;}
</style>
<g>
	<path class="st0" d="M171.82,30.32l-43.73,0v-0.03H57.08v0.03c-1.27,0-2.54,0-3.81,0l-39.93,0c-4.81,0-8.72,3.91-8.72,8.72v36.68
		c0,4.81,3.91,8.72,8.72,8.72l39.93,0c2.31,0,4.62,0,6.93,0.01c0.02,0,0.03,0,0.05,0c0.51,0,0.97-0.02,1.41-0.07h56.56
		c0.13,0.01,0.24,0.03,0.38,0.04c0.24,0.02,1.02,0.02,3.02,0.02c0.99,0,2.28,0,3.94-0.01l46.26,0c4.81,0,8.72-3.91,8.72-8.72V39.04
		C180.54,34.23,176.63,30.32,171.82,30.32z M69.76,34.85h40.91c-5.11,4.67-13.86,13.06-20.39,19.37
		C85.85,49.89,75.51,39.84,69.76,34.85z M110.29,79.81H70.04c5.81-4.72,15.93-13.67,20.22-17.5C95.9,67.3,104.88,75.23,110.29,79.81
		z M13.35,78.96c-1.79,0-3.24-1.45-3.24-3.24V39.04c0-1.79,1.45-3.24,3.24-3.24l39.93,0c2.31,0,4.63,0,6.94-0.01
		c1.52,0.01,1.88,0.12,3.31,1.05c2.59,1.67,14.59,13.13,23.05,21.42c-6.82,6.07-20.19,17.8-23.05,19.65
		c-1.43,0.92-1.85,1.04-3.31,1.05c-2.31-0.01-4.63-0.01-6.94-0.01L13.35,78.96z M175.06,75.72c0,1.79-1.45,3.24-3.24,3.24l-46.27,0
		c-1.98,0-6.11,0.01-6.57-0.01c-0.73-0.05-1.25-0.17-1.52-0.32c-1.49-0.99-14.48-12.37-23.5-20.36
		c8.88-8.57,21.72-20.83,23.49-22.14c0.35-0.17,0.85-0.28,1.49-0.33c0.49-0.02,4.62-0.01,6.6-0.01l46.27,0
		c1.79,0,3.24,1.45,3.24,3.24V75.72z"/>
	<path class="st0" d="M145.05,37.6c-10.95,0-19.85,8.9-19.85,19.85c0,10.95,8.9,19.85,19.85,19.85c10.95,0,19.85-8.9,19.85-19.85
		C164.9,46.5,156,37.6,145.05,37.6z M145.05,71.82c-7.92,0-14.37-6.45-14.37-14.37s6.45-14.37,14.37-14.37
		c7.92,0,14.37,6.45,14.37,14.37S152.98,71.82,145.05,71.82z"/>
	<path class="st0" d="M28.44,48.92c-4.08,0-4.09,6.34,0,6.34C32.52,55.26,32.53,48.92,28.44,48.92z"/>
	<path class="st0" d="M48.49,49.23c-4.08,0-4.09,6.34,0,6.34C52.57,55.57,52.58,49.23,48.49,49.23z"/>
	<path class="st0" d="M27.26,64.58l2.37,2.78c0.37-0.31,9.19-7.58,17.65-0.03l2.43-2.72C41.02,56.85,31.22,61.19,27.26,64.58z"/>
</g>
<polygon class="st0" points="282.97,44.71 273.93,35.68 261.04,48.57 248.14,35.68 239.11,44.71 252,57.61 239.11,70.5 
	248.14,79.54 261.04,66.64 273.93,79.54 282.97,70.5 270.07,57.61 "/>
<path class="st0" d="M431.46,51.07l-18.65,0.18l-19.61-31.8l-8.31-15.31v17.81l0.02,0.03l-0.13,71.09L383.94,92l-2.22-2.83
	L357.6,58.39l20.84-0.09l-0.1-7.23h-31.68l-4.64,0.04l43.15,55.07l0.81,1.04l3.08,3.37l3.07-3.37l0.81-1.04l43.15-55.07
	L431.46,51.07z M396.39,89.17L394.17,92l-0.84,1.07l-0.1-56.3l-0.35-0.58l0-0.05l0.35,0.63l9.61,15.59l3.81,6.19l9.22-0.1l4.64-0.05
	L396.39,89.17z"/>
</svg>
