<?xml version="1.0" encoding="utf-8"?>
<!-- Generator: Adobe Illustrator 25.1.0, SVG Export Plug-In . SVG Version: 6.00 Build 0)  -->
<svg version="1.1" id="Layer_1" xmlns="http://www.w3.org/2000/svg" xmlns:xlink="http://www.w3.org/1999/xlink" x="0px" y="0px"
	 viewBox="0 0 196.7 63.28" style="enable-background:new 0 0 196.7 63.28;" xml:space="preserve">
<style type="text/css">
	.st0{fill:#FFFFFF;}
</style>
<g>
	<path class="st0" d="M184.65,2.15l-47.9,0V2.11H58.97v0.04c-1.39,0-2.78,0-4.17,0l-43.73,0c-5.26,0-9.55,4.28-9.55,9.55v40.18
		c0,5.27,4.28,9.55,9.55,9.55l43.73,0c2.53,0,5.06,0,7.59,0.01c0.02,0,0.04,0,0.05,0c0.56,0,1.07-0.03,1.54-0.07h61.95
		c0.14,0.01,0.27,0.04,0.41,0.05c0.26,0.02,1.12,0.03,3.31,0.03c1.08,0,2.49,0,4.32-0.01l50.67,0c5.27,0,9.55-4.28,9.55-9.55V11.7
		C194.2,6.44,189.92,2.15,184.65,2.15z M72.86,7.11h44.81c-5.6,5.11-15.18,14.31-22.34,21.22C90.47,23.58,79.16,12.58,72.86,7.11z
		 M117.26,56.36H73.16c6.36-5.17,17.45-14.98,22.15-19.17C101.48,42.66,111.33,51.34,117.26,56.36z M11.06,55.43
		c-1.96,0-3.55-1.59-3.55-3.55V11.7c0-1.96,1.59-3.55,3.55-3.55l43.74,0c2.53,0,5.07,0,7.6-0.01c1.66,0.01,2.06,0.14,3.63,1.15
		c2.84,1.83,15.98,14.39,25.25,23.47c-7.47,6.65-22.11,19.5-25.25,21.52c-1.57,1.01-2.02,1.14-3.62,1.15
		c-2.53-0.01-5.07-0.01-7.6-0.01L11.06,55.43z M188.2,51.88c0,1.96-1.59,3.55-3.55,3.55l-50.68,0c-2.17,0-6.7,0.01-7.19-0.01
		c-0.79-0.06-1.37-0.19-1.66-0.35c-1.63-1.08-15.86-13.55-25.74-22.3c9.73-9.39,23.79-22.82,25.73-24.25
		c0.38-0.19,0.93-0.31,1.63-0.36c0.54-0.02,5.06-0.01,7.23-0.01l50.69,0c1.96,0,3.55,1.59,3.55,3.55V51.88z"/>
	<path class="st0" d="M155.33,10.12c-11.99,0-21.74,9.75-21.74,21.74c0,11.99,9.75,21.74,21.74,21.74s21.74-9.75,21.74-21.74
		C177.07,19.87,167.32,10.12,155.33,10.12z M155.33,47.61c-8.68,0-15.74-7.06-15.74-15.74s7.06-15.74,15.74-15.74
		s15.74,7.06,15.74,15.74S164.01,47.61,155.33,47.61z"/>
	<path class="st0" d="M27.6,22.53c-4.47,0-4.48,6.95,0,6.95C32.07,29.47,32.07,22.53,27.6,22.53z"/>
	<path class="st0" d="M49.56,22.86c-4.47,0-4.48,6.95,0,6.95C54.03,29.8,54.04,22.86,49.56,22.86z"/>
	<path class="st0" d="M26.3,39.67l2.59,3.05c0.41-0.34,10.07-8.31,19.34-0.03l2.66-2.98C41.37,31.21,30.64,35.97,26.3,39.67z"/>
</g>
</svg>
